<svg width="24" height="24" viewBox="0 0 24 24" fill="none" xmlns="http://www.w3.org/2000/svg">
<g id="github">
<path id="Vector" d="M10.0684 20.5059C10.0683 20.3592 10.0361 20.2144 9.97383 20.0816C9.91158 19.9488 9.82089 19.8313 9.70818 19.7375C9.59548 19.6436 9.46351 19.5757 9.32164 19.5386C9.17976 19.5014 9.03145 19.4959 8.88722 19.5225C7.57814 19.7627 5.92531 19.7988 5.48585 18.5645C5.10266 17.6085 4.46792 16.774 3.64894 16.1495C3.59051 16.1177 3.53481 16.0811 3.48244 16.0401C3.41076 15.851 3.28345 15.6881 3.1173 15.5729C2.95115 15.4576 2.75397 15.3955 2.55177 15.3946H2.54689C2.28249 15.3945 2.02882 15.4991 1.8414 15.6856C1.65398 15.8721 1.54809 16.1253 1.54689 16.3897C1.54298 17.2051 2.35789 17.7276 2.68849 17.9043C3.07833 18.296 3.39164 18.7571 3.61232 19.2637C3.97658 20.2872 5.03517 21.8399 8.07814 21.6397C8.07914 21.6749 8.08009 21.7081 8.08058 21.7383L8.08497 22.0059C8.08497 22.2711 8.19033 22.5255 8.37786 22.713C8.5654 22.9006 8.81975 23.0059 9.08497 23.0059C9.35019 23.0059 9.60454 22.9006 9.79208 22.713C9.97961 22.5255 10.085 22.2711 10.085 22.0059L10.0801 21.6876C10.0752 21.4981 10.0684 21.2236 10.0684 20.5059ZM20.7354 5.37987C20.7671 5.25487 20.7984 5.1162 20.8257 4.95995C20.9874 3.84554 20.8464 2.70814 20.4175 1.66695C20.3634 1.53121 20.2802 1.40896 20.1739 1.30875C20.0675 1.20855 19.9405 1.13282 19.8018 1.08688C19.4458 0.966758 18.1314 0.730428 15.6177 2.33688C13.5282 1.84517 11.3532 1.84517 9.2637 2.33688C6.76027 0.753958 5.45265 0.968758 5.10011 1.08204C4.95797 1.12612 4.8275 1.20144 4.71826 1.3025C4.60901 1.40355 4.52376 1.52776 4.46876 1.66604C4.03106 2.72722 3.8916 3.88781 4.06544 5.02248C4.08986 5.15041 4.11622 5.26858 4.14357 5.37697C3.31514 6.48041 2.87388 7.82633 2.8882 9.20607C2.8855 9.5139 2.89968 9.82166 2.93068 10.1279C3.26468 14.7305 6.26468 16.1123 8.35499 16.5869C8.31154 16.7119 8.27199 16.8457 8.23683 16.9873C8.17417 17.2446 8.2161 17.5163 8.35343 17.7427C8.49076 17.9691 8.71227 18.1318 8.9694 18.1952C9.22653 18.2585 9.49828 18.2173 9.72508 18.0806C9.95187 17.9439 10.1152 17.7228 10.1792 17.4658C10.2428 17.1326 10.4059 16.8266 10.647 16.5879C10.7927 16.4603 10.8983 16.2931 10.9507 16.1066C11.0032 15.9201 11.0004 15.7224 10.9425 15.5375C10.8847 15.3526 10.7744 15.1885 10.625 15.0652C10.4756 14.9419 10.2936 14.8646 10.1011 14.8428C6.64699 14.4483 5.14747 13.041 4.92189 9.94436C4.8969 9.69909 4.88565 9.45261 4.8882 9.20608C4.87216 8.22273 5.19703 7.26416 5.80763 6.49319C5.86898 6.41281 5.93433 6.33556 6.00343 6.26174C6.12586 6.12474 6.20818 5.95666 6.24134 5.77594C6.27451 5.59523 6.25724 5.40887 6.19143 5.23733C6.12396 5.05686 6.07202 4.87096 6.03616 4.68166C5.95469 4.14337 5.98141 3.59425 6.11476 3.06642C6.98389 3.31189 7.80188 3.71146 8.52976 4.2461C8.65013 4.32627 8.78633 4.37963 8.92913 4.40254C9.07193 4.42546 9.21799 4.4174 9.3574 4.37892C11.3785 3.83042 13.5093 3.83076 15.5303 4.37992C15.6704 4.41836 15.8173 4.42596 15.9606 4.40219C16.104 4.37842 16.2405 4.32384 16.3608 4.24223C17.0853 3.70537 17.8998 3.30223 18.7661 3.0518C18.8988 3.56695 18.9286 4.10325 18.8535 4.62992C18.8173 4.83746 18.7607 5.04092 18.6845 5.23735C18.6187 5.40889 18.6015 5.59525 18.6346 5.77596C18.6678 5.95668 18.7501 6.12476 18.8725 6.26176C18.9497 6.34867 19.0268 6.44242 19.0962 6.53031C19.7025 7.28823 20.0218 8.23578 19.9981 9.20607C19.9999 9.46568 19.9873 9.72519 19.9605 9.98341C19.7402 13.0391 18.2349 14.4473 14.7647 14.8428C14.5721 14.8647 14.3901 14.9421 14.2407 15.0656C14.0914 15.189 13.9811 15.3532 13.9233 15.5382C13.8655 15.7232 13.8627 15.921 13.9153 16.1075C13.9678 16.294 14.0734 16.4613 14.2193 16.5889C14.4679 16.8339 14.6313 17.1522 14.6856 17.4971C14.7531 17.7648 14.7842 18.0404 14.7779 18.3164V20.6504C14.7681 21.2979 14.7681 21.7832 14.7681 22.0059C14.7681 22.2711 14.8734 22.5254 15.061 22.713C15.2485 22.9005 15.5028 23.0059 15.7681 23.0059C16.0333 23.0059 16.2876 22.9005 16.4752 22.713C16.6627 22.5254 16.7681 22.2711 16.7681 22.0059C16.7681 21.7891 16.7681 21.3135 16.7778 20.666V18.3164C16.7859 17.8742 16.7338 17.433 16.623 17.0049C16.5914 16.8643 16.5526 16.7255 16.5068 16.5889C18.0281 16.3362 19.4103 15.5518 20.4074 14.3755C21.4046 13.1992 21.952 11.7072 21.9521 10.1651C21.9851 9.84648 22.0004 9.52633 21.9981 9.20607C22.0203 7.82484 21.5753 6.47657 20.7354 5.37987Z" fill="#04B1D9"/>
</g>
</svg>
